<?xml version="1.0" encoding="UTF-8" standalone="no"?><!DOCTYPE svg PUBLIC "-//W3C//DTD SVG 1.1//EN" "http://www.w3.org/Graphics/SVG/1.1/DTD/svg11.dtd"><svg width="100%" height="100%" viewBox="0 0 1948 1948" version="1.1" xmlns="http://www.w3.org/2000/svg" xmlns:xlink="http://www.w3.org/1999/xlink" xml:space="preserve" xmlns:serif="http://www.serif.com/" style="fill-rule:evenodd;clip-rule:evenodd;stroke-linejoin:round;stroke-miterlimit:2;"><path d="M527.332,1947.51l-454.413,-0c-40.245,-0 -72.919,-33.044 -72.919,-73.744l-0,-1800.02c-0,-40.7 32.674,-73.744 72.919,-73.744l162.968,0c-43.686,42.351 -81.299,89.572 -112.839,141.664c-48.726,80.477 -73.089,175.558 -73.089,285.244c0,107.302 26.83,204.768 80.49,292.398c53.661,87.63 143.402,168.405 269.226,242.324c74.014,44.113 157.279,87.034 249.797,128.762c92.517,41.729 167.765,79.284 225.742,112.667c90.05,51.267 154.504,104.62 193.361,160.059c38.858,55.439 58.286,123.099 58.286,202.98c0,75.111 -19.428,137.108 -58.286,185.99c-38.857,48.882 -94.676,90.61 -167.456,125.185c-55.51,26.23 -125.517,43.575 -229.137,60.266c-54.344,8.754 -87.976,9.899 -133.606,9.971c-3.641,0.002 -7.32,0.002 -11.044,-0Z"/><path d="M757.584,166.4c12.579,-12.57 124.423,-113.169 363.776,-114.866c176.947,-1.255 292.321,52.625 324.751,70.666c298.95,166.31 501.399,485.477 501.399,851.555c-0,229.636 -79.661,440.813 -212.833,607.38c2.3,-22.908 3.45,-46.4 3.45,-70.477c-0,-116.84 -31.148,-220.863 -93.443,-312.07c-62.295,-91.206 -155.12,-171.981 -278.477,-242.323c-80.182,-45.305 -161.905,-87.332 -245.171,-126.08c-83.266,-38.748 -150.186,-73.025 -200.763,-102.831c-99.918,-57.228 -168.073,-112.965 -204.463,-167.212c-36.39,-54.247 -54.585,-110.581 -54.585,-169.001c-0,-65.573 17.27,-122.801 51.81,-171.683c13.687,-19.371 28.537,-37.057 44.549,-53.058Z"/></svg>